<?xml version="1.0" encoding="utf-8"?>
<svg version="1.1" xmlns="http://www.w3.org/2000/svg" xmlns:xlink="http://www.w3.org/1999/xlink" x="0px" y="0px"
	 width="302.9px" height="95.9px" viewBox="0 0 302.9 95.9" enable-background="new 0 0 302.9 95.9" xml:space="preserve">
<path fill="#28ABE3" d="M52.7,2.9H11.3c-4.7,0-8.5,3.8-8.5,8.5v36h12.6V22.4h33.3v10.9H29.1v7.5h15v6.5h17.1v-36
	C61.2,6.7,57.3,2.9,52.7,2.9z"/>
<path fill="#28ABE3" d="M29.1,54.5v13.9H15.3V54.5H2.8v26c0,4.7,3.8,8.5,8.5,8.5h41.4c4.7,0,8.5-3.8,8.5-8.5v-26H29.1z"/>
<path fill="#28ABE3" d="M108.2,54.5l5.8,13.9H98.3L93,54.5h-5.9v13.9H73V54.5h-9v26c0,4.7,3.8,8.5,8.5,8.5h41.4
	c4.7,0,8.5-3.8,8.5-8.5v-26H108.2z"/>
<g>
	<path fill="#28ABE3" d="M113.9,2.9H72.5c-4.7,0-8.5,3.8-8.5,8.5v36h9V22.4h24c5.3,0,9.4,1.2,12.3,3.7c2.9,2.5,4.4,5.8,4.4,9.8
		c0,2.7-0.5,5-1.6,7c-0.9,1.6-2.4,3.1-4.6,4.4h14.9v-36C122.4,6.7,118.6,2.9,113.9,2.9z"/>
	<path fill="#28ABE3" d="M99.1,36.6c0-2.9-1.8-4.4-5.4-4.4h-6.5V41h6c1.8,0,3.2-0.4,4.3-1.1C98.5,39.1,99.1,38.1,99.1,36.6z"/>
</g>
<g>
	<polygon fill="#28ABE3" points="150.4,47.4 156.7,47.4 153.6,36 	"/>
	<path fill="#28ABE3" d="M175.7,2.9h-41.4c-4.7,0-8.5,3.8-8.5,8.5v36h13.9l7.7-24.9h14.9l7.8,24.9h14v-36
		C184.2,6.7,180.4,2.9,175.7,2.9z"/>
</g>
<path fill="#28ABE3" d="M172.4,54.5l4.4,13.9h-14.4l-2.6-9.1h-12.3l-2.8,9.1h-11.5l4.3-13.9h-11.7v26c0,4.7,3.8,8.5,8.5,8.5h41.4
	c4.7,0,8.5-3.8,8.5-8.5v-26H172.4z"/>
<g>
	<rect x="202.1" y="3.5" fill="#28ABE3" width="14.9" height="43.9"/>
	<path fill="#28ABE3" d="M202.1,54.5v8.9c0,3.4-0.9,6.7-2.8,9.8c-1.9,3.1-4.2,5.5-7.1,7.2l9.4,12c4.7-3.1,8.5-7,11.2-11.7
		c2.8-4.6,4.2-9.8,4.2-15.5V54.5H202.1z"/>
</g>
<g>
	<polygon fill="#28ABE3" points="244,54.5 229.1,54.5 229.1,88.3 256.5,88.3 256.5,75.2 244,75.2 	"/>
	<polygon fill="#28ABE3" points="256.5,47.4 256.5,38.7 244,38.7 244,16 256.5,16 256.5,3.5 229.1,3.5 229.1,47.4 	"/>
</g>
<g>
	<polygon fill="#28ABE3" points="273.9,47.4 288.8,47.4 288.8,16 299.3,16 299.3,3.5 263.4,3.5 263.4,16 273.9,16 	"/>
	<rect x="273.9" y="54.5" fill="#28ABE3" width="14.9" height="33.8"/>
</g>
</svg>
